<svg width="109" height="31" viewBox="0 0 109 31" fill="none" xmlns="http://www.w3.org/2000/svg">
<path d="M44.2758 11.2045C43.0726 11.2045 42.0587 10.7964 41.2342 9.98027C40.418 9.16411 40.0099 8.11657 40.0099 6.83764C40.0099 5.55871 40.418 4.51538 41.2342 3.70763C42.0587 2.89148 43.0726 2.4834 44.2758 2.4834C45.5548 2.4834 46.6107 2.963 47.4437 3.92219L46.901 4.31344C46.5981 3.95164 46.2153 3.66556 45.7525 3.45522C45.2981 3.24486 44.8059 3.13969 44.2758 3.13969C43.2746 3.13969 42.4374 3.48466 41.7643 4.17461C41.0995 4.86456 40.7672 5.75224 40.7672 6.83764C40.7672 7.91463 41.0995 8.80231 41.7643 9.50067C42.4374 10.199 43.2746 10.5482 44.2758 10.5482C44.7891 10.5482 45.2603 10.4472 45.6894 10.2453C46.1185 10.0434 46.4719 9.80357 46.7495 9.52591V7.50655H43.5691V6.86288H47.4689V9.80358C46.636 10.7375 45.5716 11.2045 44.2758 11.2045Z" fill="#202020"/>
<path d="M51.9738 11.1919C51.082 11.1919 50.3499 10.8932 49.7778 10.2958C49.2056 9.6984 48.9196 8.92852 48.9196 7.98615C48.9196 7.09427 49.1972 6.34122 49.7526 5.72699C50.3163 5.10436 51.0189 4.79304 51.8603 4.79304C52.7521 4.79304 53.4547 5.10436 53.968 5.72699C54.4812 6.34122 54.7378 7.10689 54.7378 8.02401V8.20071H49.639C49.6726 8.89066 49.904 9.46702 50.3331 9.92979C50.7622 10.3926 51.326 10.6239 52.0243 10.6239C52.8321 10.6239 53.4968 10.3421 54.0184 9.77833L54.3592 10.2074C53.7282 10.8637 52.933 11.1919 51.9738 11.1919ZM54.0689 7.68325C54.0605 7.09427 53.8628 6.55998 53.4757 6.08038C53.0971 5.60078 52.5544 5.36099 51.8476 5.36099C51.1829 5.36099 50.6528 5.60078 50.2574 6.08038C49.8703 6.55157 49.6642 7.08585 49.639 7.68325H54.0689Z" fill="#202020"/>
<path d="M57.7591 11.1919C56.9598 11.1919 56.5601 10.7501 56.5601 9.86668V5.52506H55.5504V4.94449H56.5601V3.27852H57.229V4.94449H58.4659V5.52506H57.229V9.76571C57.229 10.321 57.4394 10.5987 57.8601 10.5987C58.1377 10.5987 58.3649 10.5019 58.5416 10.3084L58.794 10.8133C58.5248 11.0657 58.1798 11.1919 57.7591 11.1919Z" fill="#202020"/>
<path d="M63.5039 3.9853C63.3693 3.9853 63.2515 3.93481 63.1505 3.83384C63.0496 3.73288 62.9991 3.61508 62.9991 3.48046C62.9991 3.34583 63.0496 3.23224 63.1505 3.13969C63.2515 3.03872 63.3693 2.98824 63.5039 2.98824C63.6469 2.98824 63.7647 3.03872 63.8573 3.13969C63.9583 3.23224 64.0087 3.34583 64.0087 3.48046C64.0087 3.62349 63.9583 3.7455 63.8573 3.84647C63.7647 3.93902 63.6469 3.9853 63.5039 3.9853ZM63.8321 11.0404H63.1758V4.94449H63.8321V11.0404Z" fill="#202020"/>
<path d="M67.2002 11.1919C66.4009 11.1919 66.0012 10.7501 66.0012 9.86668V5.52506H64.9915V4.94449H66.0012V3.27852H66.6701V4.94449H67.907V5.52506H66.6701V9.76571C66.6701 10.321 66.8805 10.5987 67.3012 10.5987C67.5788 10.5987 67.806 10.5019 67.9827 10.3084L68.2351 10.8133C67.9659 11.0657 67.6209 11.1919 67.2002 11.1919Z" fill="#202020"/>
<path d="M75.1915 11.1919C74.3165 11.1919 73.6097 10.8848 73.0712 10.2706C72.5327 9.65633 72.2635 8.89486 72.2635 7.98615C72.2635 7.07744 72.5327 6.32018 73.0712 5.71437C73.6097 5.10015 74.3165 4.79304 75.1915 4.79304C76.075 4.79304 76.786 5.10015 77.3245 5.71437C77.863 6.32018 78.1322 7.07744 78.1322 7.98615C78.1322 8.89486 77.863 9.65633 77.3245 10.2706C76.786 10.8848 76.075 11.1919 75.1915 11.1919ZM75.1915 10.5987C75.8815 10.5987 76.4242 10.3463 76.8196 9.84144C77.2235 9.32818 77.4255 8.70976 77.4255 7.98615C77.4255 7.27096 77.2235 6.66095 76.8196 6.15611C76.4242 5.64285 75.8815 5.38623 75.1915 5.38623C74.51 5.38623 73.9673 5.64285 73.5634 6.15611C73.168 6.66095 72.9702 7.27096 72.9702 7.98615C72.9702 8.70134 73.168 9.31556 73.5634 9.82882C73.9673 10.3421 74.51 10.5987 75.1915 10.5987Z" fill="#202020"/>
<path d="M84.5978 11.0404H83.9415V6.91337C83.9415 6.35804 83.8153 5.96679 83.5629 5.73961C83.3105 5.50402 82.9445 5.38623 82.4649 5.38623C82.0862 5.38623 81.7118 5.4872 81.3416 5.68913C80.9714 5.89107 80.6853 6.13928 80.4834 6.43377V11.0404H79.8271V4.94449H80.4834V5.86582C80.7274 5.57975 81.0513 5.33154 81.4552 5.12119C81.8591 4.90242 82.2671 4.79304 82.6794 4.79304C83.9584 4.79304 84.5978 5.45354 84.5978 6.77454V11.0404Z" fill="#202020"/>
<path d="M44.1875 25.7672C42.9254 25.7672 41.861 25.3633 40.9944 24.5556C40.1361 23.7478 39.707 22.6961 39.707 21.4003C39.707 20.0962 40.1361 19.0444 40.9944 18.2451C41.861 17.4457 42.9254 17.0461 44.1875 17.0461C45.7188 17.0461 46.88 17.6729 47.6709 18.9266L46.1816 19.7344C45.9797 19.4146 45.702 19.1538 45.3486 18.9519C45.0036 18.7415 44.6166 18.6363 44.1875 18.6363C43.4218 18.6363 42.7908 18.8972 42.2943 19.4188C41.7979 19.9405 41.5497 20.601 41.5497 21.4003C41.5497 22.1997 41.7979 22.8602 42.2943 23.3818C42.7908 23.9035 43.4218 24.1643 44.1875 24.1643C44.5409 24.1643 44.8816 24.1012 45.2098 23.975C45.5379 23.8488 45.7946 23.6973 45.9797 23.5207V22.511H43.7584V20.946H47.7718V24.1769C46.8211 25.2371 45.6263 25.7672 44.1875 25.7672Z" fill="#202020"/>
<path d="M54.3313 24.8332C53.7423 25.4475 52.9598 25.7546 51.9838 25.7546C51.0078 25.7546 50.2253 25.4475 49.6363 24.8332C49.0557 24.2106 48.7655 23.4491 48.7655 22.5488C48.7655 21.6485 49.0557 20.8913 49.6363 20.2771C50.2253 19.6628 51.0078 19.3557 51.9838 19.3557C52.9598 19.3557 53.7423 19.6628 54.3313 20.2771C54.9203 20.8913 55.2148 21.6485 55.2148 22.5488C55.2148 23.4491 54.9203 24.2106 54.3313 24.8332ZM50.8479 23.8236C51.1256 24.1601 51.5042 24.3284 51.9838 24.3284C52.4634 24.3284 52.842 24.1601 53.1197 23.8236C53.4058 23.4786 53.5488 23.0537 53.5488 22.5488C53.5488 22.0524 53.4058 21.6359 53.1197 21.2994C52.842 20.9544 52.4634 20.7819 51.9838 20.7819C51.5042 20.7819 51.1256 20.9544 50.8479 21.2994C50.5703 21.6359 50.4314 22.0524 50.4314 22.5488C50.4314 23.0537 50.5703 23.4786 50.8479 23.8236Z" fill="#202020"/>
<path d="M61.5785 24.8332C60.9895 25.4475 60.207 25.7546 59.231 25.7546C58.255 25.7546 57.4725 25.4475 56.8835 24.8332C56.3029 24.2106 56.0127 23.4491 56.0127 22.5488C56.0127 21.6485 56.3029 20.8913 56.8835 20.2771C57.4725 19.6628 58.255 19.3557 59.231 19.3557C60.207 19.3557 60.9895 19.6628 61.5785 20.2771C62.1675 20.8913 62.462 21.6485 62.462 22.5488C62.462 23.4491 62.1675 24.2106 61.5785 24.8332ZM58.0951 23.8236C58.3728 24.1601 58.7514 24.3284 59.231 24.3284C59.7106 24.3284 60.0892 24.1601 60.3669 23.8236C60.653 23.4786 60.796 23.0537 60.796 22.5488C60.796 22.0524 60.653 21.6359 60.3669 21.2994C60.0892 20.9544 59.7106 20.7819 59.231 20.7819C58.7514 20.7819 58.3728 20.9544 58.0951 21.2994C57.8175 21.6359 57.6786 22.0524 57.6786 22.5488C57.6786 23.0537 57.8175 23.4786 58.0951 23.8236Z" fill="#202020"/>
<path d="M66.1501 28.0768C65.0983 28.0768 64.2233 27.7739 63.5249 27.1681L64.2443 26.007C64.6987 26.5118 65.3339 26.7642 66.1501 26.7642C66.6044 26.7642 66.9957 26.6422 67.3238 26.3982C67.6604 26.1626 67.8287 25.7714 67.8287 25.2245V24.6061C67.3238 25.2455 66.697 25.5653 65.9481 25.5653C65.1572 25.5653 64.5093 25.296 64.0045 24.7575C63.5081 24.2106 63.2599 23.4449 63.2599 22.4605C63.2599 21.4845 63.5081 20.723 64.0045 20.1761C64.5093 19.6292 65.1572 19.3557 65.9481 19.3557C66.7054 19.3557 67.3322 19.667 67.8287 20.2897V19.5072H69.4442V25.1866C69.4442 25.7419 69.3432 26.2173 69.1413 26.6128C68.9477 27.0083 68.6827 27.3069 68.3461 27.5089C68.0096 27.7108 67.6604 27.8539 67.2986 27.938C66.9452 28.0306 66.5624 28.0768 66.1501 28.0768ZM66.453 24.1391C66.7138 24.1391 66.9746 24.0718 67.2355 23.9371C67.4963 23.8025 67.694 23.6384 67.8287 23.4449V21.4761C67.694 21.2741 67.4963 21.11 67.2355 20.9838C66.9831 20.8492 66.7222 20.7819 66.453 20.7819C65.9902 20.7819 65.6158 20.9333 65.3297 21.2363C65.0521 21.5392 64.9132 21.9472 64.9132 22.4605C64.9132 22.9737 65.0521 23.3818 65.3297 23.6847C65.6158 23.9876 65.9902 24.1391 66.453 24.1391Z" fill="#202020"/>
<path d="M72.6368 25.6031H71.0339V17.1849H72.6368V25.6031Z" fill="#202020"/>
<path d="M77.0911 25.7546C76.1487 25.7546 75.3704 25.4601 74.7562 24.8711C74.142 24.2821 73.8349 23.508 73.8349 22.5488C73.8349 21.6485 74.1294 20.8913 74.7183 20.2771C75.3157 19.6628 76.073 19.3557 76.9901 19.3557C77.8988 19.3557 78.6351 19.667 79.1988 20.2897C79.7625 20.9039 80.0444 21.7116 80.0444 22.7129V23.0663H75.5135C75.564 23.4702 75.7449 23.8067 76.0562 24.076C76.3675 24.3452 76.7714 24.4798 77.2678 24.4798C77.537 24.4798 77.8273 24.4252 78.1386 24.3158C78.4584 24.2064 78.7108 24.0591 78.8959 23.874L79.6027 24.909C78.9885 25.4727 78.1513 25.7546 77.0911 25.7546ZM78.492 21.9809C78.4668 21.6359 78.328 21.3246 78.0755 21.0469C77.8315 20.7693 77.4697 20.6304 76.9901 20.6304C76.5358 20.6304 76.1824 20.7693 75.93 21.0469C75.6775 21.3162 75.5303 21.6275 75.4882 21.9809H78.492Z" fill="#202020"/>
<path d="M86.2614 25.6031H84.4692V17.1849H88.407C89.2905 17.1849 89.9804 17.4457 90.4768 17.9674C90.9817 18.4807 91.2341 19.1243 91.2341 19.8984C91.2341 20.6641 90.9817 21.3078 90.4768 21.8294C89.972 22.3511 89.2821 22.6119 88.407 22.6119H86.2614V25.6031ZM88.1672 21.0343C88.529 21.0343 88.8235 20.9333 89.0507 20.7314C89.2863 20.5211 89.4041 20.2434 89.4041 19.8984C89.4041 19.5535 89.2863 19.28 89.0507 19.0781C88.8235 18.8677 88.529 18.7625 88.1672 18.7625H86.2614V21.0343H88.1672Z" fill="#202020"/>
<path d="M93.91 25.6031H92.3072V17.1849H93.91V25.6031Z" fill="#202020"/>
<path d="M100.762 25.6031H99.1595V24.9721C98.722 25.4937 98.0783 25.7546 97.2285 25.7546C96.6816 25.7546 96.1894 25.5779 95.7518 25.2245C95.3227 24.8627 95.1082 24.3663 95.1082 23.7352C95.1082 23.0789 95.3185 22.5867 95.7392 22.2586C96.1683 21.9304 96.6647 21.7663 97.2285 21.7663C98.0951 21.7663 98.7388 22.0145 99.1595 22.511V21.6906C99.1595 21.3793 99.0375 21.1311 98.7935 20.946C98.5495 20.7609 98.2255 20.6683 97.8217 20.6683C97.157 20.6683 96.5638 20.9081 96.0421 21.3877L95.4363 20.3149C96.1599 19.6755 97.0476 19.3557 98.0993 19.3557C98.8818 19.3557 99.5213 19.5366 100.018 19.8984C100.514 20.2602 100.762 20.8492 100.762 21.6654V25.6031ZM97.8721 24.6692C98.4695 24.6692 98.8987 24.4925 99.1595 24.1391V23.3818C98.8987 23.0284 98.4695 22.8517 97.8721 22.8517C97.544 22.8517 97.2706 22.9359 97.0518 23.1042C96.833 23.264 96.7236 23.487 96.7236 23.7731C96.7236 24.0507 96.833 24.2695 97.0518 24.4294C97.2706 24.5892 97.544 24.6692 97.8721 24.6692Z" fill="#202020"/>
<path d="M102.138 27.9885L102.377 26.5497C102.529 26.617 102.697 26.6507 102.882 26.6507C103.311 26.6507 103.593 26.5034 103.728 26.2089L103.955 25.6915L101.481 19.5072H103.198L104.788 23.7478L106.378 19.5072H108.107L105.242 26.6002C105.032 27.1387 104.738 27.5131 104.359 27.7234C103.98 27.9422 103.505 28.06 102.933 28.0768C102.638 28.0768 102.373 28.0474 102.138 27.9885Z" fill="#202020"/>
<path d="M0.709169 3.58058C0.708645 7.50655 0.708907 11.4325 0.708907 15.3585C0.708645 19.4591 0.701314 23.5594 0.717547 27.6603C0.719642 28.2198 0.777508 28.7953 0.91759 29.3352C1.23022 30.5392 2.24431 31.0809 3.43147 30.6884C3.92241 30.5261 4.38717 30.2679 4.84093 30.0129C10.273 26.9607 15.7047 23.9074 21.1281 20.8392C23.0241 19.7665 24.903 18.6631 26.7778 17.5534C28.99 16.244 28.9662 14.5227 26.7333 13.1986C26.6209 13.1318 26.5081 13.0653 26.3944 13.0006C19.3162 8.97989 12.2378 4.95993 5.15959 0.939187C1.9809 -0.86643 0.70943 -0.112082 0.709169 3.58058Z" fill="#ECECEC"/>
<path d="M1.72461 1.7671C1.72461 10.9031 1.72461 19.8783 1.72461 28.6953C6.22635 24.2263 10.7472 19.7382 15.2259 15.2919C10.8347 10.8931 6.36983 6.42044 1.72461 1.7671ZM2.94372 0.726562C2.92722 0.786523 2.91046 0.846745 2.89397 0.906705C7.37947 5.38226 11.865 9.85781 16.2217 14.2051C17.4164 13.0258 18.7125 11.7467 20.062 10.4147C14.3791 7.19861 8.66142 3.96259 2.94372 0.726562ZM20.0623 20.3627C18.6905 18.9906 17.4101 17.7103 16.2785 16.5783C11.8553 20.9892 7.38549 25.4465 2.9157 29.9037C2.93089 29.9537 2.94633 30.0034 2.96152 30.0534C8.67739 26.8143 14.3933 23.5751 20.0623 20.3627ZM16.9095 15.1307C18.4967 16.7061 19.9347 18.1339 21.4089 19.597C23.0592 18.6558 24.8586 17.6739 26.6113 16.6147C27.7895 15.9028 27.8532 14.9633 26.7467 14.2713C25.085 13.2321 23.3624 12.2884 21.6398 11.3516C21.4214 11.233 20.9436 11.2874 20.7619 11.454C19.4171 12.6864 18.1171 13.9676 16.9095 15.1307Z" fill="#202020"/>
</svg>
